<svg width="33" height="32" fill="none" xmlns="http://www.w3.org/2000/svg"><path d="M23.375 22.653c-1.856 0-3.025.56-4.056 1.067-.894.44-1.623.8-2.819.8-1.238 0-1.925-.333-2.819-.8-1.031-.507-2.158-1.067-4.056-1.067-1.897 0-3.025.56-4.056 1.067-.591.293-1.114.547-1.747.693-.618.134-1.072.614-1.072 1.214v.133c0 .8.77 1.373 1.567 1.213 1.018-.2 1.788-.573 2.49-.92.893-.44 1.608-.8 2.818-.8s1.925.334 2.819.8c1.031.507 2.158 1.067 4.056 1.067 1.898 0 3.025-.56 4.056-1.067.894-.44 1.623-.8 2.819-.8 1.238 0 1.925.334 2.819.8.715.347 1.485.734 2.516.934a1.33 1.33 0 0 0 1.063-.258c.146-.115.265-.261.348-.426.082-.165.127-.346.129-.53v-.12c0-.613-.468-1.093-1.086-1.226-.633-.134-1.142-.387-1.733-.694-1.031-.52-2.2-1.08-4.056-1.08Zm0-5.933c-1.856 0-3.025.573-4.056 1.067-.894.426-1.623.8-2.819.8-1.238 0-1.925-.334-2.819-.8-1.031-.507-2.158-1.067-4.056-1.067-1.897 0-3.025.573-4.056 1.067-.591.28-1.114.546-1.76.693-.605.133-1.059.613-1.059 1.213v.134c0 .184.043.366.124.532.082.167.2.313.348.43a1.319 1.319 0 0 0 1.068.252c1.031-.2 1.801-.588 2.516-.92.894-.468 1.581-.8 2.819-.8s1.925.332 2.819.8c1.031.506 2.158 1.066 4.056 1.066 1.898 0 3.025-.574 4.056-1.067.894-.467 1.581-.8 2.819-.8s1.925.333 2.819.8c.715.347 1.485.733 2.516.933a1.332 1.332 0 0 0 1.068-.261 1.26 1.26 0 0 0 .347-.432c.082-.166.125-.349.125-.533v-.12c0-.614-.468-1.094-1.086-1.227-.633-.133-1.142-.387-1.733-.693-1.031-.507-2.2-1.067-4.056-1.067Zm4.056-10.773C26.4 5.44 25.26 4.88 23.375 4.88s-3.025.56-4.056 1.067c-.894.426-1.623.8-2.819.8-1.238 0-1.925-.334-2.819-.8-1.031-.494-2.158-1.067-4.056-1.067-1.897 0-3.025.56-4.056 1.067-.591.293-1.114.546-1.747.693-.618.133-1.072.613-1.072 1.213v.094c0 .8.743 1.386 1.54 1.226 1.031-.2 1.801-.586 2.516-.92.894-.44 1.609-.8 2.819-.8s1.925.334 2.819.8c1.031.507 2.158 1.067 4.056 1.067 1.898 0 3.025-.573 4.056-1.067.894-.426 1.623-.8 2.819-.8 1.238 0 1.925.334 2.819.8.715.347 1.485.734 2.516.934a1.332 1.332 0 0 0 1.068-.262 1.26 1.26 0 0 0 .347-.431c.082-.167.125-.35.125-.534v-.12c0-.613-.468-1.093-1.086-1.227-.633-.133-1.142-.373-1.733-.666Zm-4.056 4.84c-1.856 0-3.025.573-4.056 1.066-.894.467-1.581.8-2.819.8s-1.925-.333-2.819-.8c-1.031-.506-2.158-1.066-4.056-1.066-1.897 0-3.025.573-4.056 1.066-.591.307-1.1.56-1.733.694-.619.133-1.086.613-1.086 1.226v.12c0 .185.043.367.124.533.082.166.2.313.348.43a1.317 1.317 0 0 0 1.068.251c1.031-.2 1.801-.587 2.516-.92.894-.427 1.623-.8 2.819-.8s1.925.333 2.819.8c1.031.506 2.158 1.066 4.056 1.066 1.898 0 3.025-.573 4.056-1.066.894-.427 1.623-.8 2.819-.8 1.238 0 1.925.333 2.819.8.715.346 1.485.733 2.516.933a1.332 1.332 0 0 0 1.063-.257c.146-.116.265-.262.348-.427.082-.165.127-.346.129-.53v-.12c0-.613-.468-1.093-1.086-1.226-.633-.133-1.142-.387-1.733-.693-1.031-.52-2.2-1.08-4.056-1.08Z" fill="url(#a)"/><defs><linearGradient id="a" x1="16.5" y1="4.88" x2="16.5" y2="27.12" gradientUnits="userSpaceOnUse"><stop stop-color="#FFBF00"/><stop offset="1" stop-color="#F2A60C"/></linearGradient></defs></svg>