<svg width="33" height="32" fill="none" xmlns="http://www.w3.org/2000/svg"><path d="M26.125 9.333h-1.128l-2.337-6.24a2.69 2.69 0 0 0-1.007-1.274 2.821 2.821 0 0 0-1.578-.486h-2.2c-.756 0-1.375.6-1.375 1.334C16.5 3.4 17.119 4 17.875 4h2.2l2.008 5.333h-6.614L14.974 8h.123c.757 0 1.376-.6 1.376-1.333 0-.734-.62-1.334-1.375-1.334H11c-.756 0-1.375.6-1.375 1.334C9.625 7.4 10.244 8 11 8h1.031l2.503 6.667h-.921c-.605-2.974-3.177-5.174-6.394-5.32C3.369 9.16 0 12.267 0 16c0 3.733 3.025 6.667 6.875 6.667 3.383 0 6.119-2.254 6.738-5.334h5.774c.605 2.974 3.177 5.174 6.394 5.32 3.85.174 7.219-2.92 7.219-6.666 0-3.72-3.025-6.654-6.875-6.654Zm-17.875 8h2.502c-.577 1.64-2.2 2.774-4.152 2.654-2.049-.12-3.754-1.8-3.85-3.8C2.654 13.853 4.496 12 6.875 12c1.829 0 3.328 1.107 3.877 2.667H8.25c-.756 0-1.375.6-1.375 1.333s.619 1.333 1.375 1.333Zm11.137-2.666h-1.925L16.46 12h4.166a6.222 6.222 0 0 0-1.238 2.667ZM25.96 20c-2.117-.08-3.905-1.827-3.96-3.893a3.926 3.926 0 0 1 1.444-3.147l.852 2.267a1.384 1.384 0 0 0 1.76.8c.715-.254 1.086-1.014.825-1.707l-.866-2.307.014-.013c.551-.018 1.1.072 1.615.265.514.194.983.486 1.377.86.395.374.707.821.918 1.316.211.494.317 1.024.311 1.559 0 2.293-1.898 4.08-4.29 4Zm-10.835 6.667h-5.5l8.25 4V28h5.5l-8.25-4v2.667Z" fill="url(#a)"/><defs><linearGradient id="a" x1="16.5" y1="1.333" x2="16.5" y2="30.667" gradientUnits="userSpaceOnUse"><stop stop-color="#FFBF00"/><stop offset="1" stop-color="#F2A60C"/></linearGradient></defs></svg>