<svg width="33" height="32" fill="none" xmlns="http://www.w3.org/2000/svg"><path d="M16.5 10.667c-3.039 0-5.5 2.386-5.5 5.333s2.461 5.333 5.5 5.333S22 18.947 22 16s-2.461-5.333-5.5-5.333Zm12.293 4a11.85 11.85 0 0 0-3.546-7.149 12.526 12.526 0 0 0-7.372-3.438V2.667c0-.734-.619-1.334-1.375-1.334s-1.375.6-1.375 1.334V4.08a12.526 12.526 0 0 0-7.372 3.438 11.85 11.85 0 0 0-3.546 7.149H2.75c-.756 0-1.375.6-1.375 1.333s.619 1.333 1.375 1.333h1.457a11.85 11.85 0 0 0 3.546 7.149 12.525 12.525 0 0 0 7.372 3.438v1.413c0 .734.619 1.334 1.375 1.334s1.375-.6 1.375-1.334V27.92a12.525 12.525 0 0 0 7.372-3.438 11.85 11.85 0 0 0 3.546-7.149h1.457c.756 0 1.375-.6 1.375-1.333s-.619-1.333-1.375-1.333h-1.457ZM16.5 25.333c-5.321 0-9.625-4.173-9.625-9.333s4.304-9.333 9.625-9.333S26.125 10.84 26.125 16s-4.304 9.333-9.625 9.333Z" fill="url(#a)"/><defs><linearGradient id="a" x1="16.5" y1="1.333" x2="16.5" y2="30.667" gradientUnits="userSpaceOnUse"><stop stop-color="#FFBF00"/><stop offset="1" stop-color="#F2A60C"/></linearGradient></defs></svg>