<svg width="33" height="32" fill="none" xmlns="http://www.w3.org/2000/svg"><path d="M8.319 10.733c-1.8 1.746-2.814 4.112-2.819 6.581-.005 2.47.999 4.84 2.791 6.593a21.853 21.853 0 0 1 10.12-10.574c-3.88 3.184-6.5 7.577-7.41 12.427 3.574 1.64 7.974 1.04 10.93-1.827 4.112-3.986 5.267-14.853 5.514-17.84a.634.634 0 0 0-.194-.518.675.675 0 0 0-.535-.188c-3.08.24-14.286 1.36-18.397 5.346Z" fill="url(#a)"/><defs><linearGradient id="a" x1="16.474" y1="5.384" x2="16.474" y2="26.659" gradientUnits="userSpaceOnUse"><stop stop-color="#FFBF00"/><stop offset="1" stop-color="#F2A60C"/></linearGradient></defs></svg>