<svg width="33" height="32" fill="none" xmlns="http://www.w3.org/2000/svg"><path d="M26.757 13.333a1.3 1.3 0 0 0-.096 1.333c.341.773.582 1.583.715 2.414a10.378 10.378 0 0 1-.949 6.307 1.351 1.351 0 0 1-.51.519c-.216.124-.462.19-.714.187H7.81c-.253 0-.5-.066-.716-.193a1.35 1.35 0 0 1-.508-.527 10.389 10.389 0 0 1 .922-10.924 10.942 10.942 0 0 1 4.56-3.575 11.312 11.312 0 0 1 5.807-.794c.999.114 1.976.365 2.901.747a1.412 1.412 0 0 0 1.86-.632 1.297 1.297 0 0 0-.137-1.37 1.37 1.37 0 0 0-.582-.438 14.149 14.149 0 0 0-8.424-.757 13.843 13.843 0 0 0-7.286 4.169 13.14 13.14 0 0 0-3.39 7.516 13.002 13.002 0 0 0 1.789 8.018c.24.403.585.739 1 .972.414.234.885.359 1.365.362h19.044c.484.002.96-.12 1.381-.355a2.71 2.71 0 0 0 1.011-.979 12.974 12.974 0 0 0 .756-11.853 1.345 1.345 0 0 0-.47-.536 1.403 1.403 0 0 0-1.399-.085c-.22.109-.405.272-.537.474Z" fill="url(#a)"/><path d="M14.561 16.787a2.628 2.628 0 0 0-.806 1.886c0 .35.071.698.21 1.022.138.323.34.617.596.865.256.248.56.444.893.579.334.134.692.203 1.053.203.73 0 1.43-.281 1.945-.782l7.783-11.32-11.674 7.547Z" fill="url(#b)"/><defs><linearGradient id="a" x1="16.498" y1="5.308" x2="16.498" y2="26.667" gradientUnits="userSpaceOnUse"><stop stop-color="#FFBF00"/><stop offset="1" stop-color="#F2A60C"/></linearGradient><linearGradient id="b" x1="19.995" y1="9.24" x2="19.995" y2="21.342" gradientUnits="userSpaceOnUse"><stop stop-color="#FFBF00"/><stop offset="1" stop-color="#F2A60C"/></linearGradient></defs></svg>